# xmcd
#
# Track frame offsets: 
#        150
#        43150
#        71680
#        118020
#        145807
#        178010
#        210720
#        243772
#        276810
#        302447
#
# Disc length: 4514 seconds
#
# Revision: 14
# Processed by: cddbd v1.5.2PL0 Copyright (c) Steve Scherf et al.
# Submitted via: ExactAudioCopyFreeDBPlugin 1.0
#
DISCID=8f11a00a
DTITLE=Moscow Chamber Orchestra - Adagios
DYEAR=1900
DGENRE=
TTITLE0=Piano Concerto No.20,K.466
TTITLE1=Divertimento No.1,K.136,Andante
TTITLE2=Violin Conerto No.5,K.219,Adagio
TTITLE3=Divertimento No.3,K.138,Andante
TTITLE4=Piano Concerto No.23,K.488,Adagio
TTITLE5=oboe Concerto K.314, Adagio non troppo
TTITLE6=Violin Concerto No.4,K.218,Andante cantabile
TTITLE7=Piano Concerto No.21,K.467,Adante
TTITLE8=Divertimento No.2,K.137,Andante
TTITLE9=Violin Concerto No.3,K.216,Adagio
EXTD=
EXTT0=
EXTT1=
EXTT2=
EXTT3=
EXTT4=
EXTT5=
EXTT6=
EXTT7=
EXTT8=
EXTT9=
PLAYORDER=
